<?xml version="1.0" standalone="no"?>
<!DOCTYPE svg PUBLIC "-//W3C//DTD SVG 20010904//EN"
 "http://www.w3.org/TR/2001/REC-SVG-20010904/DTD/svg10.dtd">
<svg version="1.0" xmlns="http://www.w3.org/2000/svg"
 width="32.000000pt" height="32.000000pt" viewBox="0 0 32.000000 32.000000"
 preserveAspectRatio="xMidYMid meet">
<metadata>
Created by potrace 1.15, written by Peter Selinger 2001-2017
</metadata>
<g transform="translate(0.000000,32.000000) scale(0.100000,-0.100000)"
fill="#000000" stroke="none">
<path d="M203 263 c-28 -4 -33 -8 -33 -32 0 -24 -8 -31 -61 -56 -59 -29 -61
-31 -56 -62 5 -31 4 -33 -24 -33 -20 0 -29 -5 -29 -16 0 -14 7 -15 37 -10 21
3 62 6 91 6 51 0 52 1 52 29 0 16 7 34 15 41 14 12 15 8 9 -28 l-7 -42 62 0
c34 0 61 4 61 10 0 6 -15 10 -33 10 l-34 0 13 87 c7 48 11 90 8 95 -5 8 -12 8
-71 1z"/>
</g>
</svg>
