<svg xmlns="http://www.w3.org/2000/svg" width="136" height="136" viewBox="0 0 136 136"><defs><style>.a,.b{fill:#fff;}.b{stroke:#ff7f00;stroke-width:2px;}.c{fill:#171714;}</style></defs><g transform="translate(-195.889 -713.255)"><circle class="a" cx="68" cy="68" r="68" transform="translate(195.889 713.255)"/><circle class="b" cx="67" cy="67" r="67" transform="translate(196.889 714.255)"/><path class="c" d="M279.164,805.157c-8.982,0-13.056-4.208-12.565-6.468.445-2.057,4.717-4.99,8.244-2.653,4.963,3.288,11.365,5.141,17.229,6.169a32.019,32.019,0,0,1-12.909,2.953Zm7.4,9.174a13.177,13.177,0,0,1-13.052,11.521H256.983a13.174,13.174,0,0,1-13.053-11.518l-.881-7.049a31.246,31.246,0,0,0,8.01.714,29.469,29.469,0,0,0,26.962.692,32.23,32.23,0,0,0,9.386-1.059l-.84,6.7Zm-49.648-12.962c1.785-.3,3.546-.683,5.25-1.122a40.377,40.377,0,0,0,11.975-5.016c3.356-2.228,7.769.465,8.248,2.661.439,2.022-2.986,6.354-12.565,6.354a32.128,32.128,0,0,1-12.908-2.877Zm-.318-27.053-4.819-10.444c-.212-1.233.28-2.65,1.467-4.218,6.165-8.161,27.737-16.662,37.252-17.169,7.639-.389,9.09,6.812,9.687,13.956-.117,0-14.379,7.375-23.137,10.859-1.935.771-3.931,1.565-5.965,2.386-.279-.715-.6-1.9-.846-2.843-.937-3.537-2-7.552-4.94-8.893a5.266,5.266,0,0,0-4.642.261,1.78,1.78,0,0,0,1.558,3.2c1.036-.5,1.507-.346,1.9-.045a1.767,1.767,0,0,0-.578.412,29.536,29.536,0,0,0-6.933,12.538Zm34.269,33.124a25.518,25.518,0,0,1-5.617.62,25.89,25.89,0,0,1-7.693-1.16,14.143,14.143,0,0,0,6.653-4.113,13.179,13.179,0,0,0,6.656,4.653Zm20.476-25.488a26.308,26.308,0,0,1-5.031,15.282,35.127,35.127,0,0,1-9.5-4.166c-4.19-2.785-9.318-1.216-12.009,1.765-2.315-3.268-7.927-5.634-12.625-2.517a33.993,33.993,0,0,1-8.751,3.935,26.071,26.071,0,0,1,2.427-31.737c.378,1.093.692,2.268.949,3.24.73,2.763,1.263,4.759,2.741,5.5a2.411,2.411,0,0,0,1.093.261,2.59,2.59,0,0,0,.956-.189c2.313-.937,4.585-1.841,6.773-2.714,8.933-3.557,21.376-9.828,21.5-10.176a25.015,25.015,0,0,1,11.476,21.52Zm-1.985-24.263a14.8,14.8,0,0,1,6.437,10.3c.688,4.747-.037,7.465-1.194,9.507a28.667,28.667,0,0,0-10.629-18.454c-.06-.507-.26-3.221-.337-3.992a23.3,23.3,0,0,1,5.723,2.639Zm8.5,41.666a56.193,56.193,0,0,1-5.737-.767s.662-5.507.627-5.685a29.794,29.794,0,0,0,2.117-9.718c2.047-2.754,5.834-6.176,4.449-15.706a18.39,18.39,0,0,0-8.044-12.792c-.057-.037-4.963-3.107-8.135-3.319-1.1-5.972-4.018-12.912-12.829-12.436-10.153.54-33,9.446-39.9,18.574-1.9,2.517-2.6,4.979-2.064,7.318.027.121,7.235,15.766,7.235,15.766a.876.876,0,0,0,.053.1c-.022.423-.03.846-.03,1.274A29.435,29.435,0,0,0,237.732,793c-.019.148.514,4.566.514,4.566a59.192,59.192,0,0,1-7.122,1.043,1.788,1.788,0,0,0-1.6,1.3,1.808,1.808,0,0,0,.684,1.954,36.86,36.86,0,0,0,9.125,4.411l1.062,8.5a16.739,16.739,0,0,0,16.583,14.64h16.533a16.745,16.745,0,0,0,16.582-14.64l1.04-8.323a35.729,35.729,0,0,0,7.636-3.867,1.776,1.776,0,0,0-.915-3.224Z"/><path class="c" d="M255.453,779.059h-9.489a1.7,1.7,0,0,1,0-3.4h9.489a1.7,1.7,0,1,1,0,3.4Z"/><path class="c" d="M283.918,779.059H274.43a1.7,1.7,0,0,1,0-3.4h9.488a1.7,1.7,0,0,1,0,3.4Z"/></g></svg>