<svg xmlns="http://www.w3.org/2000/svg" width="23.946" height="25.253" viewBox="0 0 23.946 25.253"><defs><style>.a{fill:#ff7f00;}.b{fill:none;stroke:#4d4d4d;stroke-linecap:round;stroke-linejoin:round;}</style></defs><g transform="translate(-45.025 -131.207)"><line class="a" x1="12.075" y1="3.926" transform="translate(52.461 138.773)"/><path class="a" d="M76.6,142.229l2.423-7.451a.846.846,0,0,0-.543-1.065L70.9,131.249a.846.846,0,0,0-1.065.542l-2.423,7.451" transform="translate(-13.511)"/><g transform="translate(57.517 134.722)"><line class="a" x2="3.824" y2="1.244" transform="translate(0.822 0)"/><line class="a" x2="3.824" y2="1.244" transform="translate(0 2.529)"/></g><g transform="translate(45.525 133.014)"><line class="b" x1="12.697" transform="translate(5.125 8.68)"/><rect class="b" width="22.946" height="10.641" transform="translate(0 12.304)"/><path class="b" d="M49.63,149.133l-4.105,7.249H68.471l-4.105-7.249" transform="translate(-45.525 -144.077)"/><rect class="b" width="9.335" height="3.247" transform="translate(6.805 16.002)"/><path class="b" d="M72.538,144.607v-7.835a.845.845,0,0,0-.845-.845H63.723a.845.845,0,0,0-.845.845v7.835" transform="translate(-56.235 -135.927)"/><g transform="translate(9.462 3.01)"><line class="b" x2="4.022"/><line class="b" x2="4.022" transform="translate(0 2.659)"/></g></g></g></svg>