<svg xmlns="http://www.w3.org/2000/svg" width="41" height="41" viewBox="0 0 41 41"><defs><style>.a{fill:#fff;stroke:#ff7f00;}.b{fill:#434242;}</style></defs><g transform="translate(-1 -1)"><circle class="a" cx="20" cy="20" r="20" transform="translate(1.5 1.5)"/><g transform="translate(13 11)"><path class="b" d="M544.334,949.447h-.1a5.1,5.1,0,0,1-4.886-5.172l.771-.009a4.332,4.332,0,0,0,4.131,4.409,4.043,4.043,0,0,0,2.917-1.155,4.544,4.544,0,0,0,1.386-3.221l.771.015a5.313,5.313,0,0,1-1.623,3.763,4.835,4.835,0,0,1-3.362,1.37Z" transform="translate(-535.824 -937.132)"/><path class="b" d="M545.641,931.615a.386.386,0,0,1-.386-.385v-6.886c0-3.651-2.595-6.621-5.784-6.621h-.125c-3.19,0-5.784,2.97-5.784,6.621v6.886a.386.386,0,0,1-.771,0v-6.886c0-4.076,2.941-7.392,6.556-7.392h.125c3.615,0,6.555,3.316,6.555,7.392v6.886a.386.386,0,0,1-.386.385Z" transform="translate(-530.983 -916.951)"/><path class="b" d="M548.751,931.682a5.294,5.294,0,0,1-2.944-1.2,5.857,5.857,0,0,1-1.374-1.557,4.016,4.016,0,0,1-2.47,2.484,5.816,5.816,0,0,1-2.928-.02.386.386,0,1,1,.213-.741h0a5.1,5.1,0,0,0,2.492.023,3.559,3.559,0,0,0,2.118-2.385c.039-.1.073-.187.1-.256a.426.426,0,0,1,.361-.264c.285-.017.422.2.629.536a5.546,5.546,0,0,0,1.321,1.567,4.568,4.568,0,0,0,2.477,1.045.386.386,0,0,1,0,.771Z" transform="translate(-535.391 -924.938)"/><path class="b" d="M526.254,976.229h0a.385.385,0,0,1-.383-.388l.01-1.736c-.014-1.034,1.683-2.127,5.044-3.241a.386.386,0,0,1,.506.337c.049.658,1.2,1.363,2.824,1.363s2.784-.709,2.826-1.372a.386.386,0,0,1,.519-.337c1.95.724,5.218,2.157,5.185,3.617l-.008,1.331a.424.424,0,0,1-.385.425h0a.423.423,0,0,1-.383-.43l.008-1.317c.012-.542-1.453-1.644-4.281-2.742-.406.942-1.784,1.6-3.478,1.6s-3.073-.667-3.477-1.61c-2.839.983-4.131,1.909-4.126,2.372l-.01,1.743a.386.386,0,0,1-.385.383Z" transform="translate(-525.868 -956.761)"/></g></g></svg>