<svg xmlns="http://www.w3.org/2000/svg" width="34.196" height="24.701" viewBox="0 0 34.196 24.701"><defs><style>.a{fill:#ff7f00;}.b,.c,.d{fill:none;stroke:#394553;}.b{stroke-linecap:round;}.b,.c{stroke-linejoin:round;}.d{stroke-miterlimit:10;}</style></defs><g transform="translate(0 0)"><line class="a" x2="8.215" y2="1.313" transform="translate(18.728 11.151)"/><line class="a" x2="8.215" y2="1.313" transform="translate(19.224 8.049)"/><line class="a" x2="8.215" y2="1.313" transform="translate(17.737 17.352)"/><line class="a" x2="8.215" y2="1.313" transform="translate(18.232 14.252)"/><path class="a" d="M2.834,0h14.6a2.834,2.834,0,0,1,2.834,2.834V26.842a2.834,2.834,0,0,1-2.834,2.834H2.835A2.835,2.835,0,0,1,0,26.841V2.834A2.834,2.834,0,0,1,2.834,0Z" transform="translate(0 20.017) rotate(-80.917)"/><path class="a" d="M308.225,69.5l.392-2.453a2.765,2.765,0,0,1,3.462-2.274l1.786,2.532,2.333-1.873c1.739.278,3.01,1.526,2.732,3.264l-.392,2.453" transform="translate(-304.402 -52.261)"/><path class="a" d="M321.887,53.04a2.4,2.4,0,1,1-4.745-.758l.143-.893a2.4,2.4,0,1,1,4.745.758Z" transform="translate(-308.98 -44.335)"/><line class="b" x2="8.32" transform="translate(21.114 9.152)"/><line class="b" x2="8.32" transform="translate(21.114 6.012)"/><line class="b" x2="8.32" transform="translate(21.114 15.433)"/><line class="b" x2="8.32" transform="translate(21.114 12.293)"/><path class="c" d="M2.835,0H26.841a2.835,2.835,0,0,1,2.835,2.835v14.6a2.834,2.834,0,0,1-2.834,2.834H2.834A2.834,2.834,0,0,1,0,17.437V2.835A2.835,2.835,0,0,1,2.835,0Z" transform="translate(4.02 0.593)"/><path class="c" d="M315.512,69.543V67.059a2.765,2.765,0,0,1,3.06-2.791l2.164,2.218,2.007-2.218c1.761,0,3.213,1.031,3.213,2.791v2.484" transform="translate(-308.156 -52.031)"/><path class="d" d="M326.132,51.267a2.4,2.4,0,1,1-4.8,0v-.9a2.4,2.4,0,1,1,4.8,0Z" transform="translate(-311.152 -43.611)"/></g></svg>