<svg xmlns="http://www.w3.org/2000/svg" width="31.023" height="22.567" viewBox="0 0 31.023 22.567"><defs><style>.a{fill:#ff7f00;}.b,.c,.d,.e,.f{fill:none;}.b,.c,.d{stroke:#394552;}.b,.c,.e,.f{stroke-linecap:round;}.b,.c,.d,.e{stroke-linejoin:round;}.b{fill-rule:evenodd;}.e,.f{stroke:#394553;}.f{stroke-miterlimit:10;}</style></defs><g transform="translate(-30.396 -261.561)"><g transform="translate(30.396 263.552)"><g transform="translate(0 6.673)"><g transform="translate(0 0)"><ellipse class="a" cx="4.894" cy="2.266" rx="4.894" ry="2.266" transform="matrix(0.984, -0.176, 0.176, 0.984, 0, 1.725)"/><path class="a" d="M32.727,298.082c.22,1.232,2.556,1.844,5.217,1.368s4.639-1.861,4.418-3.093" transform="translate(-31.833 -291.361)"/><path class="a" d="M43.669,303.565c.22,1.232-1.758,2.617-4.419,3.093s-4.987-.139-5.207-1.37" transform="translate(-32.644 -295.803)"/><path class="a" d="M33.7,292.233l-2.263-1.3.408,2.279,1.082,6.041c.22,1.232,2.556,1.844,5.217,1.368s4.639-1.861,4.418-3.093l-1.483-8.283" transform="translate(-31.037 -286.977)"/></g></g><g transform="translate(7.319 0)"><g transform="translate(0)"><ellipse class="a" cx="4.894" cy="2.266" rx="4.894" ry="2.266" transform="matrix(0.984, -0.176, 0.176, 0.984, 0, 1.725)"/><path class="a" d="M51.8,280.69c.22,1.232,2.556,1.844,5.217,1.368s4.639-1.862,4.418-3.093" transform="translate(-50.91 -273.969)"/><path class="a" d="M62.746,286.174c.22,1.232-1.758,2.617-4.419,3.093s-4.987-.138-5.207-1.37" transform="translate(-51.721 -278.412)"/><path class="a" d="M52.776,274.841l-2.263-1.3.408,2.279L52,281.86c.22,1.232,2.556,1.844,5.217,1.368s4.639-1.861,4.418-3.093l-1.483-8.282" transform="translate(-50.114 -269.585)"/></g></g></g><g transform="translate(34.483 262.064)"><g transform="translate(13.623 8.751)"><path class="b" d="M79.547,285.855a6.413,6.413,0,1,1-1.617,1.457" transform="translate(-76.555 -284.872)"/></g><g transform="translate(0 2.394)"><line class="c" x1="0.039" y1="6.19" transform="translate(18.519 0.159)"/><ellipse class="d" cx="5.18" cy="2.398" rx="5.18" ry="2.398" transform="translate(0 3.775) rotate(-0.36)"/><path class="d" d="M41.137,292.038c.008,1.324,2.334,2.383,5.195,2.365s5.173-1.106,5.164-2.43" transform="translate(-41.103 -282.892)"/><path class="d" d="M51.562,299.723c.008,1.324-2.3,2.412-5.164,2.43s-5.175-1.041-5.184-2.365" transform="translate(-41.151 -287.669)"/><line class="d" x2="0.016" y2="2.575" transform="translate(8.158)"/><path class="d" d="M51.472,284.326l.056,8.9c.008,1.324-2.3,2.413-5.164,2.431s-5.186-1.041-5.195-2.366l-.041-6.494" transform="translate(-41.098 -278.179)"/></g><path class="d" d="M70.207,304.844a9.041,9.041,0,0,1-1.865-.363" transform="translate(-57.871 -288.207)"/><path class="d" d="M69.736,297.034A8.7,8.7,0,0,1,68,296.659" transform="translate(-57.657 -283.386)"/><path class="d" d="M70.841,289.413a9.566,9.566,0,0,1-2.73-.424" transform="translate(-57.728 -278.659)"/><path class="d" d="M78.725,276.038c.008,1.324-2.3,2.413-5.164,2.431a10.922,10.922,0,0,1-1.457-.087" transform="translate(-60.189 -270.677)"/><ellipse class="d" cx="5.18" cy="2.398" rx="5.18" ry="2.398" transform="translate(8.144 0.065) rotate(-0.36)"/></g><g transform="translate(50.893 274.141)"><g transform="translate(0 2.367)"><line class="e" x2="4.234"/><line class="e" x2="3.629" transform="translate(0 1.33)"/></g><path class="f" d="M91.4,294.066a3.033,3.033,0,1,0,0,5.016" transform="translate(-85.573 -293.542)"/></g></g></svg>