<svg xmlns="http://www.w3.org/2000/svg" width="29.289" height="21.301" viewBox="0 0 29.289 21.301"><defs><style>.a,.b{fill:none;stroke:#394553;stroke-miterlimit:10;}.a{stroke-linecap:round;}</style></defs><g transform="translate(0 0.5)"><g transform="translate(2.301 0)"><line class="a" y2="20.196" transform="translate(3.398)"/><line class="a" y2="20.196" transform="translate(7.366)"/><line class="b" x2="2.15" transform="translate(4.967 5.003)"/><line class="b" x2="2.15" transform="translate(4.967 8.064)"/><line class="b" x2="2.15" transform="translate(4.967 11.125)"/><line class="b" x2="2.15" transform="translate(4.967 14.186)"/><line class="b" x2="2.15" transform="translate(4.967 17.247)"/><path class="b" d="M319.623,260.431a28.7,28.7,0,0,1,4.977-.4c4.615,0,8.356.91,8.356,2.033v16.395" transform="translate(-316.244 -258.263)"/><path class="a" d="M310.477,279.906V263.511c0-.443.581-.852,1.567-1.186" transform="translate(-310.477 -259.71)"/><path class="a" d="M360.719,275.715c3.41.039,6.125.723,6.125,1.563v11.071" transform="translate(-342.157 -268.153)"/></g><line class="b" x2="29.289" transform="translate(0 20.301)"/></g></svg>