<svg xmlns="http://www.w3.org/2000/svg" width="29.473" height="28.72" viewBox="0 0 29.473 28.72"><defs><style>.a{fill:#ff7f00;}.b{fill:none;stroke:#394553;stroke-miterlimit:10;}</style></defs><g transform="translate(0 0)"><rect class="a" width="5.01" height="5.01" transform="translate(0 5.797) rotate(-14.192)"/><rect class="a" width="5.011" height="5.01" transform="translate(9.032 3.513) rotate(-14.192)"/><rect class="a" width="5.01" height="5.01" transform="translate(18.066 1.228) rotate(-14.192)"/></g><g transform="translate(2.284 9.033)"><rect class="a" width="5.01" height="5.01" transform="translate(0 5.797) rotate(-14.192)"/><rect class="a" width="5.011" height="5.01" transform="translate(9.033 3.513) rotate(-14.192)"/><rect class="a" width="5.01" height="5.01" transform="translate(18.066 1.228) rotate(-14.192)"/></g><g transform="translate(4.569 18.065)"><rect class="a" width="5.01" height="5.01" transform="translate(0 5.797) rotate(-14.192)"/><rect class="a" width="5.011" height="5.01" transform="translate(9.033 3.513) rotate(-14.192)"/><rect class="a" width="5.01" height="5.01" transform="translate(18.066 1.228) rotate(-14.192)"/></g><g transform="translate(5.327 2.538)"><rect class="b" width="5.01" height="5.01"/><rect class="b" width="5.011" height="5.01" transform="translate(9.317)"/><rect class="b" width="5.01" height="5.01" transform="translate(18.635)"/></g><g transform="translate(5.327 11.855)"><rect class="b" width="5.01" height="5.01"/><rect class="b" width="5.011" height="5.01" transform="translate(9.317 0)"/><rect class="b" width="5.01" height="5.01" transform="translate(18.635)"/></g><g transform="translate(5.327 21.172)"><rect class="b" width="5.01" height="5.01"/><rect class="b" width="5.011" height="5.01" transform="translate(9.317 0)"/><rect class="b" width="5.01" height="5.01" transform="translate(18.635)"/></g></svg>