<svg xmlns="http://www.w3.org/2000/svg" width="28.477" height="19.939" viewBox="0 0 28.477 19.939"><defs><style>.a{fill:#ff7f00;}.b,.c{fill:none;stroke:#394553;stroke-linejoin:round;}.b{stroke-linecap:round;}</style></defs><g transform="translate(0 0.5)"><path class="a" d="M323.564,395.1l-4.831.309-11.207.718-4.831.309a1.288,1.288,0,0,0-1.2,1.364l.3,4.759.621,9.7a1.283,1.283,0,0,0,1.363,1.2h0l20.868-1.336h0a1.284,1.284,0,0,0,1.025-.632,1.267,1.267,0,0,0,.174-.728l-.621-9.7-.3-4.759A1.288,1.288,0,0,0,323.564,395.1Z" transform="translate(-301.494 -394.013)"/><line class="b" x1="5.304" y2="6.348" transform="translate(5.24 10.068)"/><line class="b" x2="5.304" y2="6.348" transform="translate(21.931 10.068)"/><path class="b" d="M317.941,397.466l9.188,7.093,9.038-7.093" transform="translate(-310.857 -395.362)"/><path class="c" d="M335.392,398.61v-4.745a1.288,1.288,0,0,0-1.284-1.284H313.221a1.288,1.288,0,0,0-1.284,1.284v14.484a1.284,1.284,0,0,0,1.284,1.28h20.911a1.285,1.285,0,0,0,1.284-1.28v-9.715Z" transform="translate(-307.439 -392.581)"/></g></svg>