<svg xmlns="http://www.w3.org/2000/svg" width="24.573" height="31.255" viewBox="0 0 24.573 31.255"><defs><style>.a{fill:#ff7f00;}.b,.c{fill:none;stroke:#394553;stroke-miterlimit:10;}.b{stroke-linecap:round;}</style></defs><g transform="translate(0 0.5)"><g transform="translate(6.351 15.17)"><line class="a" y1="2.494" x2="9.74"/><line class="a" y1="2.494" x2="9.74" transform="translate(0.919 3.59)"/><line class="a" y1="2.494" x2="9.74" transform="translate(1.838 7.181)"/></g><path class="a" d="M43.305,497.746,31.378,500.8,27.7,506.113l4.779,18.668a1.754,1.754,0,0,0,2.127,1.26l14.961-3.831a1.754,1.754,0,0,0,1.26-2.127l-5.4-21.077A1.753,1.753,0,0,0,43.305,497.746Z" transform="translate(-27.701 -495.341)"/><path class="a" d="M37.427,504.655l1.335,5.213-3.182.815" transform="translate(-32.135 -499.26)"/><g transform="translate(9.575 12.487)"><line class="b" x2="10.054"/><line class="b" x2="10.054" transform="translate(0 3.706)"/><line class="b" x2="10.054" transform="translate(0 7.412)"/></g><path class="c" d="M56.633,492.314H44.321l-4.88,4.236v19.27a1.753,1.753,0,0,0,1.748,1.748H56.633a1.754,1.754,0,0,0,1.748-1.748V494.063A1.754,1.754,0,0,0,56.633,492.314Z" transform="translate(-34.309 -492.314)"/><path class="c" d="M49.989,493.087v5.381H46.7" transform="translate(-38.398 -492.749)"/></g></svg>