<svg xmlns="http://www.w3.org/2000/svg" width="42.5" height="42.5" viewBox="0 0 42.5 42.5"><defs><style>.a{fill:none;}.b{fill:#fff;stroke:#ff7f00;}.c{fill:#434242;}</style></defs><g transform="translate(-387.174 -711.183)"><g transform="translate(387.674 711.183)"><circle class="a" cx="21" cy="21" r="21" transform="translate(0 0)"/><circle class="b" cx="20.5" cy="20.5" r="20.5" transform="translate(0 1)"/></g><g transform="translate(397.194 720.176)"><path class="c" d="M438.587,763.273c-2.047-.151-3.221-1.684-4.3-3.97a8.937,8.937,0,0,0,2.721-2.357,27.216,27.216,0,0,1,.13,3.2c0,.266.209.393.476.393h.007c.262,0,.478-.115.482-.379.068-4.659-.8-8.022-2.578-10.186a8.916,8.916,0,0,0-2.6-2.143,17.415,17.415,0,0,1-5.491-4.986.482.482,0,1,0-.773.576q.326.437.632.815a8.336,8.336,0,0,0-1.328,14.851l-.208.2a24.782,24.782,0,0,1-3.083,2.742,7.6,7.6,0,0,1-3.169,1.215V751.079a10.342,10.342,0,0,1,10.67-10.139,10.23,10.23,0,0,1,10.233,10.188l.05,12.094a11.787,11.787,0,0,1-1.876.051Zm-8.239-3.907a7.373,7.373,0,0,1-2.393-14.348,19.1,19.1,0,0,0,4.444,3.615,8.317,8.317,0,0,1,1.888,1.39h-1.881a.46.46,0,1,0,0,.919h2.249a.5.5,0,0,0,.342-.13,11.213,11.213,0,0,1,1.818,4.717,7.6,7.6,0,0,1-6.468,3.837Zm11.029-8.218a11.4,11.4,0,0,0-22.786-.069v12.693a.481.481,0,0,0,.482.482,8.249,8.249,0,0,0,4.155-1.417,25.284,25.284,0,0,0,3.221-2.864l.391-.388a.128.128,0,0,0,.018-.02,8.278,8.278,0,0,0,3.489.766,8.059,8.059,0,0,0,3.073-.61c1.068,2.271,2.459,4.319,5.1,4.514a14.553,14.553,0,0,0,2.475-.094.484.484,0,0,0,.437-.483l-.052-12.51Z" transform="translate(-418.591 -740.021)"/><path class="c" d="M440.626,774.493h-2.249a.46.46,0,1,1,0-.919h2.249a.46.46,0,1,1,0,.919Z" transform="translate(-431.951 -763.242)"/><path class="c" d="M449.431,791.928a2.463,2.463,0,0,1-2.1-1.3.482.482,0,0,1,.874-.406,1.524,1.524,0,0,0,1.31.747,2.278,2.278,0,0,0,2.035-.82.482.482,0,0,1,.79.552,3.223,3.223,0,0,1-2.909,1.228Z" transform="translate(-438.45 -774.57)"/></g></g></svg>