<svg xmlns="http://www.w3.org/2000/svg" width="43" height="43" viewBox="0 0 43 43"><defs><style>.a{fill:none;}.b{fill:#fff;stroke:#ff7f00;}.c{fill:#434242;}</style></defs><g transform="translate(-637.5 -531.5)"><g transform="translate(637.729 531.729)"><circle class="a" cx="21" cy="21" r="21" transform="translate(0.271 0.271)"/><circle class="b" cx="21" cy="21" r="21" transform="translate(0.271 0.271)"/></g><g transform="translate(648 539)"><path class="c" d="M244.12,759.632c-2.81,0-4.084-1.316-3.93-2.023a1.807,1.807,0,0,1,2.579-.83,14.506,14.506,0,0,0,5.389,1.93,10.017,10.017,0,0,1-4.038.924Zm2.315,2.87a4.122,4.122,0,0,1-4.083,3.6h-5.17a4.121,4.121,0,0,1-4.083-3.6l-.276-2.205a9.772,9.772,0,0,0,2.506.223,9.218,9.218,0,0,0,8.434.216,10.08,10.08,0,0,0,2.936-.331l-.263,2.1Zm-15.53-4.055c.558-.094,1.109-.214,1.642-.351a12.629,12.629,0,0,0,3.746-1.569,1.822,1.822,0,0,1,2.58.832c.137.633-.934,1.988-3.93,1.988a10.051,10.051,0,0,1-4.038-.9Zm-.1-8.462-1.507-3.267a1.761,1.761,0,0,1,.459-1.319c1.928-2.553,8.676-5.212,11.653-5.371,2.39-.122,2.843,2.131,3.03,4.366-.037,0-4.5,2.307-7.237,3.4-.605.241-1.23.49-1.866.746-.087-.224-.188-.594-.265-.889-.293-1.106-.626-2.362-1.545-2.782a1.648,1.648,0,0,0-1.452.082.557.557,0,0,0,.487,1c.324-.156.471-.108.594-.014a.553.553,0,0,0-.181.129,9.239,9.239,0,0,0-2.169,3.922Zm10.72,10.362a7.986,7.986,0,0,1-1.757.194,8.1,8.1,0,0,1-2.406-.363,4.423,4.423,0,0,0,2.081-1.287,4.123,4.123,0,0,0,2.082,1.456Zm6.405-7.973a8.229,8.229,0,0,1-1.574,4.78,10.991,10.991,0,0,1-2.972-1.3,2.938,2.938,0,0,0-3.757.552,2.956,2.956,0,0,0-3.949-.787,10.632,10.632,0,0,1-2.737,1.231,8.155,8.155,0,0,1,.759-9.928c.118.342.216.709.3,1.013.228.864.4,1.489.857,1.72a.754.754,0,0,0,.342.082.808.808,0,0,0,.3-.059c.724-.293,1.434-.576,2.119-.849a62.138,62.138,0,0,0,6.725-3.183,7.825,7.825,0,0,1,3.59,6.732Zm-.621-7.59a4.63,4.63,0,0,1,2.014,3.222,4.39,4.39,0,0,1-.374,2.974,8.967,8.967,0,0,0-3.325-5.773c-.019-.159-.081-1.008-.105-1.249a7.289,7.289,0,0,1,1.79.826Zm2.659,13.034a17.574,17.574,0,0,1-1.795-.24s.207-1.723.2-1.778a9.32,9.32,0,0,0,.662-3.04,5.383,5.383,0,0,0,1.392-4.913,5.752,5.752,0,0,0-2.516-4,7.5,7.5,0,0,0-2.545-1.038c-.344-1.868-1.257-4.039-4.013-3.89-3.176.169-10.323,2.955-12.481,5.81a2.744,2.744,0,0,0-.646,2.289c.008.038,2.263,4.932,2.263,4.932a.276.276,0,0,0,.017.031c-.007.132-.009.265-.009.4a9.207,9.207,0,0,0,.667,3.452c-.006.046.161,1.428.161,1.428a18.53,18.53,0,0,1-2.228.326.559.559,0,0,0-.5.407.566.566,0,0,0,.214.611,11.533,11.533,0,0,0,2.854,1.38l.332,2.659a5.236,5.236,0,0,0,5.187,4.58h5.172a5.238,5.238,0,0,0,5.187-4.58l.325-2.6a11.172,11.172,0,0,0,2.389-1.21.556.556,0,0,0-.286-1.008Z" transform="translate(-228.167 -738.909)"/><path class="c" d="M247.764,776.723H244.8a.532.532,0,1,1,0-1.064h2.968a.532.532,0,0,1,0,1.064Z" transform="translate(-239.229 -764.163)"/><path class="c" d="M276.23,776.723h-2.968a.532.532,0,1,1,0-1.064h2.968a.532.532,0,0,1,0,1.064Z" transform="translate(-258.79 -764.163)"/></g></g></svg>